PathFileType	4	(X/Y/Z)	TVC_39_BWA_04_walk_RCNL2025.trc
DataRate	CameraRate	NumFrames	NumMarkers	Units	OrigDataRate	OrigDataStartFrame	OrigNumFrames
100	100	7	27	mm	100	794	1269
Frame#	Time	R_Shoulder			L_Shoulder			C7			J_Notch			R_Elbow			L_Elbow			R_Wrist			L_Wrist			R_Asis			L_Asis			R_Psis			L_Psis			Sacral			Thoracic			Sternum			R_Thigh_Lateral			R_Knee_Lateral			R_Shank_Lateral			R_Ankle_Lateral			R_Heel			R_Toe			L_Thigh_Lateral			L_Knee_Lateral			L_Shank_Lateral			L_Ankle_Lateral			L_Heel			L_Toe		
		X1	Y1	Z1	X2	Y2	Z2	X3	Y3	Z3	X4	Y4	Z4	X5	Y5	Z5	X6	Y6	Z6	X7	Y7	Z7	X8	Y8	Z8	X9	Y9	Z9	X10	Y10	Z10	X11	Y11	Z11	X12	Y12	Z12	X13	Y13	Z13	X14	Y14	Z14	X15	Y15	Z15	X16	Y16	Z16	X17	Y17	Z17	X18	Y18	Z18	X19	Y19	Z19	X20	Y20	Z20	X21	Y21	Z21	X22	Y22	Z22	X23	Y23	Z23	X24	Y24	Z24	X25	Y25	Z25	X26	Y26	Z26	X27	Y27	Z27
794	7.93000000	77.747017	1484.421997	340.157562	142.512756	1481.664307	-23.617447	75.091766	1547.435181	148.504288	224.338760	1426.362549	172.275513	82.609184	1168.039185	466.990936	87.022583	1168.480591	-136.716125	201.553246	941.581116	451.513428	136.518692	911.877472	-109.259155	152.124786	957.591736	326.272217	211.903580	935.997681	34.657478	-25.183723	968.135315	197.014435	-4.998180	957.702637	92.236404	-15.090952	962.918976	144.625420	-9.308740	1219.217529	131.543594	268.732056	1266.366943	194.481232	125.859436	769.208069	420.854584	199.245941	509.072144	377.250244	159.340332	325.406494	439.995544	214.517578	96.481247	368.765045	183.757660	76.187897	310.146118	361.326599	69.258179	387.267487	167.815735	680.672668	-30.607756	159.557434	460.849579	65.179817	109.585083	321.860535	11.691673	41.946659	71.767433	109.866653	-7.842258	59.861675	164.205704	181.484985	42.281357	115.666328
795	7.94000000	79.758232	1483.773193	341.304169	143.595932	1481.323608	-22.660603	76.679367	1546.907959	149.644424	225.959946	1425.901001	172.984085	84.572388	1167.208252	467.766663	88.762207	1168.129028	-136.006470	203.157913	940.591034	451.865494	138.978874	911.644989	-108.836647	155.322968	956.611572	326.442444	213.493683	935.987976	34.381466	-22.714481	967.252930	198.160477	-3.116771	957.103027	93.281151	-12.915626	962.177979	145.720814	-7.708819	1218.598145	132.974182	270.452728	1265.904663	194.840149	129.458832	768.046021	420.678284	202.489258	507.840790	376.378784	161.994629	324.120605	438.605743	215.692642	95.323692	366.333923	184.713806	75.497574	307.642029	362.325043	66.876411	384.623871	169.056824	680.472168	-30.780352	160.622070	460.533630	64.988510	110.016998	321.813080	11.378364	41.948689	71.746643	109.893135	-7.846312	59.919212	164.217453	181.462372	42.250443	115.538696
796	7.95000000	81.792564	1483.104980	342.506927	144.628494	1480.981323	-21.654499	78.257950	1546.370850	150.844421	227.593414	1425.455688	173.724182	86.585083	1166.347778	468.583649	90.496605	1167.769897	-135.254501	204.836578	939.590790	452.210907	141.504730	911.420288	-108.392212	158.643494	955.653198	326.619659	215.129166	935.972534	34.118847	-20.153450	966.362122	199.363098	-1.170292	956.484131	94.387108	-10.661871	961.423126	146.875103	-6.073016	1217.957275	134.473450	272.207764	1265.461548	195.208893	133.148956	766.819153	420.455750	205.588043	506.520996	375.403870	164.506332	322.758575	437.213135	216.528366	94.071518	363.886871	185.280945	74.656464	305.167023	363.005371	64.464256	381.933105	170.300369	680.225281	-30.921446	161.749100	460.196899	64.812653	110.496521	321.766510	11.064632	41.952419	71.724503	109.924736	-7.849948	59.976398	164.228989	181.441528	42.220642	115.398270
797	7.96000000	83.852898	1482.419678	343.764618	145.614502	1480.639404	-20.599371	79.831062	1545.826538	152.103409	229.242493	1425.028564	174.496201	88.652260	1165.461060	469.441925	92.221581	1167.403931	-134.456924	206.592377	938.582672	452.552399	144.094879	911.205627	-107.926266	162.076172	954.724609	326.805023	216.812927	935.948547	33.876595	-17.505398	965.470154	200.617081	0.842054	955.850098	95.548698	-8.331672	960.660126	148.082890	-4.398574	1217.298462	136.036102	273.999603	1265.039551	195.588913	136.922531	765.536743	420.189087	208.535110	505.127075	374.326416	166.881851	321.331299	435.820770	217.087219	92.743240	361.451813	185.534256	73.668152	302.742554	363.433716	62.088364	379.251587	171.556580	679.927551	-31.022844	162.948486	459.837708	64.661705	111.035118	321.715668	10.764363	41.960239	71.701576	109.963280	-7.849269	60.032864	164.241104	181.422668	42.191849	115.248955
798	7.97000000	85.942039	1481.719604	345.075836	146.558914	1480.300415	-19.495523	81.402550	1545.277954	153.420242	230.910568	1424.621460	175.300644	90.779152	1164.551758	470.341156	93.932922	1167.032349	-133.610626	208.428307	937.569122	452.892822	146.747826	911.004181	-107.439335	165.609055	953.833618	327.000092	218.547607	935.913574	33.661835	-14.776348	964.584656	201.916687	2.920280	955.205322	96.759651	-5.928034	959.894989	149.338169	-2.682980	1216.625854	137.656006	275.830444	1264.640625	195.981903	140.775162	764.211914	419.881287	211.328522	503.676208	373.152435	169.131531	319.853058	434.434631	217.431931	91.359932	359.057770	185.549820	72.543503	300.389984	363.674805	59.809620	376.636414	172.837448	679.577820	-31.077492	164.228409	459.455109	64.545609	111.642532	321.655640	10.492414	41.974739	71.678574	110.010620	-7.841045	60.088917	164.254776	181.405930	42.163895	115.095528
799	7.98000000	88.062637	1481.007080	346.438660	147.467743	1479.967285	-18.343382	82.976547	1544.728149	154.793594	232.600906	1424.235962	176.137985	92.971031	1163.624390	471.280640	95.626572	1166.657349	-132.712769	210.347176	936.552734	453.235153	149.461823	910.819702	-106.931854	169.228577	952.987610	327.206665	220.335449	935.865723	33.481670	-11.973475	963.713562	203.255661	5.063553	954.554810	98.013123	-3.454961	959.134186	150.634392	-0.924009	1215.943604	139.326141	277.702332	1264.266724	196.389816	144.704987	762.861206	419.536469	213.972000	502.188477	371.893341	171.270309	318.341400	433.064453	217.623718	89.944611	356.734283	185.401779	71.300888	298.130920	363.790253	57.680035	374.142120	174.155975	679.177673	-31.079561	165.594635	459.048859	64.474434	112.325859	321.582184	10.263764	41.998550	71.656395	110.068459	-7.822784	60.145493	164.270905	181.391617	42.136684	114.943192
800	7.99000000	90.217094	1480.285034	347.850983	148.347946	1479.643799	-17.143543	84.557404	1544.180176	156.221832	234.316681	1423.873291	177.008774	95.232956	1162.683228	472.259125	97.298798	1166.281860	-131.760971	212.351631	935.536102	453.582535	152.234802	910.656708	-106.404068	172.919861	952.193420	327.426880	222.178345	935.803589	33.343018	-9.105005	962.864746	204.627380	7.270148	953.903687	99.301865	-0.917428	958.384216	151.964622	0.880222	1215.256348	141.038849	279.616882	1263.919312	196.814743	148.711990	761.504700	419.160095	216.475204	500.686157	370.566345	173.317810	316.816864	431.724274	217.720215	88.521500	354.510590	185.159531	69.965996	295.987213	363.836792	55.740349	371.817291	175.524841	678.731140	-31.024033	167.049805	458.619659	64.457870	113.088631	321.492035	10.092701	42.034195	71.636276	110.138206	-7.792753	60.204029	164.290298	181.380188	42.110268	114.797165
